<svg xmlns="http://www.w3.org/2000/svg" viewBox="0 0 127.14 96.36" fill="#5865F2">
  <path d="M107.7,8.07A105.15,105.15,0,0,0,77.26,0a77.19,77.19,0,0,0-3.3,6.83A96.67,96.67,0,0,0,53.22,6.83,77.19,77.19,0,0,0,49.88,0,105.15,105.15,0,0,0,19.44,8.07C3.66,31.58-1.86,54.65,1,77.53A105.73,105.73,0,0,0,32,96.36a77.7,77.7,0,0,0,6.63-10.85,68.43,68.43,0,0,1-10.5-5c.87-.64,1.71-1.32,2.51-2a75.76,75.76,0,0,0,75.83,0c.8.71,1.64,1.39,2.51,2a68.43,68.43,0,0,1-10.5,5,77.7,77.7,0,0,0,6.63,10.85,105.73,105.73,0,0,0,31.06-18.83C129.43,50.21,123.33,27.42,107.7,8.07ZM42.45,65.69C36.18,65.69,31,60,31,53S36.18,40.36,42.45,40.36,53.83,46,53.83,53,48.72,65.69,42.45,65.69Zm42.24,0C78.41,65.69,73.24,60,73.24,53S78.41,40.36,84.69,40.36,96.07,46,96.07,53,91,65.69,84.69,65.69Z"/>
</svg>
